<?xml version="1.0" encoding="UTF-8" standalone="no"?>
<svg
   xmlns:dc="http://purl.org/dc/elements/1.1/"
   xmlns:cc="http://creativecommons.org/ns#"
   xmlns:rdf="http://www.w3.org/1999/02/22-rdf-syntax-ns#"
   xmlns:svg="http://www.w3.org/2000/svg"
   xmlns="http://www.w3.org/2000/svg"
   width="64"
   height="64"
   viewBox="0 0 64 64"
   version="1.1"
   id="svg8">
  <defs
     id="defs2" />
  <metadata
     id="metadata5">
    <rdf:RDF>
      <cc:Work
         rdf:about="">
        <dc:format>image/svg+xml</dc:format>
        <dc:type
           rdf:resource="http://purl.org/dc/dcmitype/StillImage" />
        <dc:title></dc:title>
      </cc:Work>
    </rdf:RDF>
  </metadata>
  <path
     id="path6939"
     class=""
     d="m 45.557195,10.163391 v 2.76676 c 0,2.438236 -6.072472,4.426843 -13.557198,4.426843 -7.48472,0 -13.557192,-1.988607 -13.557192,-4.426843 v -2.76676 c 0,-2.4382355 6.072472,-4.4268485 13.557192,-4.4268485 7.484726,0 13.557198,1.988613 13.557198,4.4268485 z m 0,6.225236 v 6.22523 c 0,2.438242 -6.072472,4.426849 -13.557198,4.426849 -7.48472,0 -13.557192,-1.988607 -13.557192,-4.426849 v -6.22523 c 2.91268,2.005917 8.243744,2.939733 13.557192,2.939733 5.313454,0 10.644461,-0.933816 13.557198,-2.939733 z m 0,9.683706 v 6.225236 c 0,2.438236 -6.072472,4.426849 -13.557198,4.426849 -7.48472,0 -13.557192,-1.988613 -13.557192,-4.426849 v -6.225236 c 2.91268,2.005923 8.243744,2.939732 13.557192,2.939732 5.313454,0 10.644461,-0.933809 13.557198,-2.939732 z"
     style="fill:#4d4d4d;stroke-width:0.06052319" />
  <text
     id="text7509"
     y="50.960476"
     x="2.6367188"
     style="font-style:normal;font-variant:normal;font-weight:bold;font-stretch:normal;font-size:16px;line-height:1.25;font-family:sans-serif;-inkscape-font-specification:'sans-serif, Bold';font-variant-ligatures:normal;font-variant-caps:normal;font-variant-numeric:normal;font-feature-settings:normal;text-align:start;letter-spacing:0px;word-spacing:0px;writing-mode:lr-tb;text-anchor:start;fill:#0088aa;fill-opacity:1;stroke:none;"
     xml:space="preserve"><tspan
       y="50.960476"
       x="2.6367188"
       id="tspan7507">SQLite</tspan></text>
</svg>
